<svg width="180" height="60" viewBox="0 0 180 60" fill="none" xmlns="http://www.w3.org/2000/svg">
<g clip-path="url(#clip0_1_793)">
<path fill-rule="evenodd" clip-rule="evenodd" d="M168.268 0H11.1386C1.76098 0 0.199219 3.24706 0.199219 10.9694V49.0994C0.199219 56.8165 3.41098 60 11.128 60H168.27C175.992 60 179.317 56.8112 179.317 49.0888V10.9694C179.317 3.24706 175.99 0 168.268 0Z" fill="black"/>
<path fill-rule="evenodd" clip-rule="evenodd" d="M46.8986 37.3482C45.9968 39.3476 45.5645 40.2405 44.4033 42.007C42.7815 44.474 40.498 47.5464 37.6674 47.5729C35.1527 47.5958 34.5068 45.9352 31.0939 45.9546C27.681 45.974 26.968 47.6011 24.4515 47.5782C21.621 47.5517 19.4574 44.7776 17.8357 42.3105C13.3039 35.4105 12.8292 27.314 15.6245 23.0099C17.6116 19.9517 20.7439 18.1605 23.691 18.1605C26.691 18.1605 28.5774 19.8052 31.0568 19.8052C33.4621 19.8052 34.9286 18.157 38.398 18.157C41.0204 18.157 43.798 19.5846 45.7762 22.0535C39.2927 25.6093 40.3462 34.8723 46.8986 37.3482Z" fill="white"/>
<path fill-rule="evenodd" clip-rule="evenodd" d="M35.7669 15.4042C37.0269 13.7877 37.9833 11.5024 37.6375 9.16772C35.5798 9.3089 33.171 10.6183 31.7645 12.3265C30.4886 13.8759 29.4351 16.1754 29.8463 18.4095C32.0927 18.4783 34.4169 17.1371 35.7669 15.4042Z" fill="white"/>
<path d="M61.1477 24.0096C63.3811 24.0096 64.9184 22.8515 65.3458 20.8799H63.7948C63.4432 21.9898 62.485 22.6378 61.1546 22.6378C59.3278 22.6378 58.1698 21.1695 58.1698 18.8465C58.1698 16.544 59.3417 15.062 61.1477 15.062C62.4368 15.062 63.4708 15.8271 63.7948 17.0059H65.3458C65.0149 15.0206 63.3398 13.6902 61.1477 13.6902C58.3697 13.6902 56.5912 15.6962 56.5912 18.8465C56.5912 22.0175 58.356 24.0096 61.1477 24.0096Z" fill="white"/>
<path d="M69.6473 19.9771L72.8596 16.5718H71.0811L68.241 19.6737H68.1859V16.5718H66.7037V23.8236H68.1859V20.4804H68.241L71.1155 23.8236H72.9836L69.6473 19.9771Z" fill="white"/>
<path d="M76.2787 22.7687C75.4791 22.7687 74.9552 22.3552 74.9552 21.721C74.9552 21.1005 75.4585 20.7077 76.3477 20.6456L78.133 20.5353V21.1074C78.133 22.0519 77.3197 22.7687 76.2787 22.7687ZM75.865 23.9475C76.8164 23.9475 77.7332 23.4374 78.1537 22.6309H78.1883V23.8235H79.615V18.8258C79.615 17.3713 78.4915 16.4407 76.7336 16.4407C74.9414 16.4407 73.8247 17.4057 73.7419 18.7155H75.1482C75.2792 18.0675 75.8169 17.6539 76.6786 17.6539C77.5885 17.6539 78.133 18.1364 78.133 18.943V19.5014L76.1478 19.6185C74.4243 19.7151 73.4525 20.494 73.4525 21.7623C73.4525 23.0652 74.4452 23.9475 75.865 23.9475Z" fill="white"/>
<path d="M87.0325 23.8236V16.5718H85.5572V19.4256C85.254 19.784 84.7094 20.0874 83.9028 20.0874C82.986 20.0874 82.4966 19.5222 82.4966 18.6192V16.5718H81.0145V18.7294C81.0145 20.3149 81.9589 21.3559 83.6684 21.3559C84.468 21.3559 85.0678 21.1076 85.4606 20.7354H85.5572V23.8236H87.0325Z" fill="white"/>
<path d="M90.107 23.8236L93.4571 18.7294H93.5121V23.8236H94.9805V16.5718H93.5121L90.162 21.6522H90.107V16.5718H88.6385V23.8236H90.107Z" fill="white"/>
<path d="M99.5714 17.654C100.295 17.654 100.688 17.9918 100.688 18.5916C100.688 19.2326 100.268 19.5566 99.4267 19.5566H98.0481V17.654H99.5714ZM99.5232 20.5976C100.502 20.5976 100.985 20.956 100.985 21.6728C100.985 22.3692 100.53 22.7413 99.6886 22.7413H98.0481V20.5976H99.5232ZM96.5797 23.8236H99.9161C101.488 23.8236 102.467 23.0103 102.467 21.7349C102.467 20.825 101.846 20.1633 100.909 20.0392V19.984C101.605 19.853 102.143 19.1706 102.143 18.4192C102.143 17.2749 101.288 16.5718 99.8748 16.5718H96.5797V23.8236Z" fill="white"/>
<path d="M106.334 22.7687C105.534 22.7687 105.01 22.3552 105.01 21.721C105.01 21.1005 105.514 20.7077 106.403 20.6456L108.188 20.5353V21.1074C108.188 22.0519 107.375 22.7687 106.334 22.7687ZM105.92 23.9475C106.872 23.9475 107.788 23.4374 108.209 22.6309H108.243V23.8235H109.67V18.8258C109.67 17.3713 108.547 16.4407 106.789 16.4407C104.997 16.4407 103.88 17.4057 103.797 18.7155H105.203C105.334 18.0675 105.872 17.6539 106.734 17.6539C107.644 17.6539 108.188 18.1364 108.188 18.943V19.5014L106.203 19.6185C104.48 19.7151 103.508 20.494 103.508 21.7623C103.508 23.0652 104.5 23.9475 105.92 23.9475Z" fill="white"/>
<path d="M112.703 23.8235L116.054 18.7294H116.109V23.8235H117.577V16.5717H116.109L112.759 21.6521H112.703V16.5717H111.235V23.8235H112.703ZM112.221 13.387C112.221 14.6898 113.144 15.5722 114.509 15.5722C115.881 15.5722 116.805 14.6898 116.805 13.387H115.798C115.792 14.1659 115.295 14.7587 114.509 14.7587C113.731 14.7587 113.234 14.1659 113.227 13.387H112.221Z" fill="white"/>
<path d="M124.691 16.5718H118.659V17.7506H120.934V23.8236H122.416V17.7506H124.691V16.5718Z" fill="white"/>
<path d="M128.682 17.6401C129.723 17.6401 130.426 18.4191 130.461 19.5289H126.835C126.911 18.4328 127.641 17.6401 128.682 17.6401ZM130.454 21.6935C130.254 22.3275 129.627 22.755 128.779 22.755C127.586 22.755 126.828 21.921 126.828 20.6594V20.5697H131.95V20.0597C131.95 17.8607 130.695 16.4407 128.682 16.4407C126.635 16.4407 125.325 17.9572 125.325 20.232C125.325 22.5206 126.614 23.9613 128.744 23.9613C130.406 23.9613 131.66 23.017 131.867 21.6935H130.454Z" fill="white"/>
<path d="M139.084 17.654C139.808 17.654 140.201 17.9918 140.201 18.5916C140.201 19.2326 139.781 19.5566 138.94 19.5566H137.561V17.654H139.084ZM139.036 20.5976C140.015 20.5976 140.497 20.956 140.497 21.6728C140.497 22.3692 140.042 22.7413 139.202 22.7413H137.561V20.5976H139.036ZM136.093 23.8236H139.429C141.001 23.8236 141.98 23.0103 141.98 21.7349C141.98 20.825 141.359 20.1633 140.422 20.0392V19.984C141.118 19.853 141.656 19.1706 141.656 18.4192C141.656 17.2749 140.801 16.5718 139.388 16.5718H136.093V23.8236Z" fill="white"/>
<path d="M68.0377 47.1985H71.0103L64.4754 29.24H61.44L54.9051 47.1985H57.8276L59.4833 42.3449H66.382L68.0377 47.1985ZM62.895 32.2268H62.9703L65.667 40.1048H60.1983L62.895 32.2268Z" fill="white"/>
<path d="M79.5265 33.8943C77.6201 33.8943 76.1022 34.8527 75.3245 36.3585H75.2744V34.1059H72.653V51.5293H75.3623V45.0453H75.4249C76.1776 46.5015 77.6827 47.4223 79.5768 47.4223C82.8881 47.4223 85.0832 44.7965 85.0832 40.6522C85.0832 36.5078 82.8755 33.8943 79.5265 33.8943ZM78.8116 45.1448C76.7294 45.1448 75.3498 43.3776 75.3498 40.6522C75.3498 37.9515 76.742 36.1595 78.8116 36.1595C80.9564 36.1595 82.2985 37.9141 82.2985 40.6522C82.2985 43.4025 80.9564 45.1448 78.8116 45.1448Z" fill="white"/>
<path d="M94.0256 33.8943C92.1192 33.8943 90.6014 34.8527 89.8237 36.3585H89.7736V34.1059H87.1521V51.5293H89.8615V45.0453H89.9241C90.6767 46.5015 92.1819 47.4223 94.0759 47.4223C97.3872 47.4223 99.5823 44.7965 99.5823 40.6522C99.5823 36.5078 97.3747 33.8943 94.0256 33.8943ZM93.3107 45.1448C91.2286 45.1448 89.8489 43.3776 89.8489 40.6522C89.8489 37.9515 91.2411 36.1595 93.3107 36.1595C95.4556 36.1595 96.7976 37.9141 96.7976 40.6522C96.7976 43.4025 95.4556 45.1448 93.3107 45.1448Z" fill="white"/>
<path d="M106.367 42.1953C106.543 45.4436 109.252 47.497 113.266 47.497C117.555 47.497 120.252 45.3939 120.252 42.0337C120.252 39.4076 118.709 37.9267 114.997 37.0555L113.002 36.5702C110.669 35.9977 109.716 35.2509 109.716 33.9815C109.716 32.3885 111.209 31.2933 113.391 31.2933C115.573 31.2933 117.066 32.376 117.229 34.1682H119.963C119.876 31.0694 117.254 28.9412 113.429 28.9412C109.565 28.9412 106.844 31.0694 106.844 34.1682C106.844 36.6697 108.386 38.2129 111.71 39.0093L114.056 39.5695C116.401 40.1419 117.392 40.9758 117.392 42.3697C117.392 43.975 115.749 45.1449 113.466 45.1449C111.083 45.1449 109.34 43.975 109.139 42.1953H106.367Z" fill="white"/>
<path d="M123.212 31.0071V34.1059H121.292V36.2341H123.212V43.7511C123.212 46.2774 124.253 47.2856 126.924 47.2856C127.526 47.2856 128.128 47.2357 128.429 47.161V45.033C128.254 45.0702 127.815 45.0951 127.539 45.0951C126.435 45.0951 125.933 44.5849 125.933 43.4523V36.2341H128.442V34.1059H125.933V31.0071H123.212Z" fill="white"/>
<path d="M135.992 47.4472C139.768 47.4472 142.251 44.8711 142.251 40.6522C142.251 36.4457 139.755 33.8694 135.992 33.8694C132.229 33.8694 129.733 36.4457 129.733 40.6522C129.733 44.8711 132.217 47.4472 135.992 47.4472ZM135.992 45.232C133.873 45.232 132.493 43.5643 132.493 40.6522C132.493 37.7524 133.873 36.0846 135.992 36.0846C138.112 36.0846 139.492 37.7524 139.492 40.6522C139.492 43.5643 138.125 45.232 135.992 45.232Z" fill="white"/>
<path d="M144.32 47.1984H147.03V39.3578C147.03 37.5035 148.108 36.346 149.852 36.346C150.379 36.346 150.855 36.4083 151.068 36.4955V33.994C150.868 33.9566 150.529 33.8943 150.14 33.8943C148.585 33.8943 147.406 34.8029 146.967 36.3336H146.904V34.1059H144.32V47.1984Z" fill="white"/>
<path d="M157.665 36.0349C159.56 36.0349 160.839 37.4411 160.902 39.445H154.304C154.442 37.4662 155.772 36.0349 157.665 36.0349ZM160.889 43.3527C160.525 44.4977 159.384 45.2694 157.841 45.2694C155.671 45.2694 154.292 43.7634 154.292 41.486V41.3242H163.611V40.4032C163.611 36.4331 161.328 33.8694 157.665 33.8694C153.94 33.8694 151.557 36.6073 151.557 40.7143C151.557 44.8462 153.903 47.4472 157.778 47.4472C160.801 47.4472 163.084 45.7423 163.46 43.3527H160.889Z" fill="white"/>
</g>
<defs>
<clipPath id="clip0_1_793">
<rect width="179.118" height="60" fill="white" transform="translate(0.199219)"/>
</clipPath>
</defs>
</svg>
