<svg width="8" height="8" viewBox="0 0 8 8" fill="none" xmlns="http://www.w3.org/2000/svg">
<path d="M7.01103 3.14106L7.23714 3.01941L7.1095 2.79662L6.73352 2.14037L6.60509 1.91619L6.38526 2.05193L4.51369 3.20757L4.59261 1.00897L4.60191 0.75H4.34277H3.5498H3.29067L3.29997 1.00897L3.37889 3.20757L1.50732 2.05193L1.28749 1.91619L1.15905 2.14037L0.783078 2.79662L0.65544 3.01941L0.881552 3.14106L2.8157 4.18165L0.879078 5.25189L0.654833 5.37582L0.784222 5.59696L1.1602 6.23953L1.28892 6.45954L1.50639 6.32657L3.37885 5.18167L3.29997 7.36206L3.2906 7.62109H3.5498H4.34277H4.60198L4.59261 7.36206L4.51373 5.18167L6.38619 6.32657L6.60365 6.45954L6.73238 6.23953L7.10836 5.59696L7.23775 5.37582L7.0135 5.25189L5.07688 4.18165L7.01103 3.14106Z" fill="#D66300" stroke="#D66300" stroke-width="0.5"/>
</svg>
